<svg width="95" height="33" viewBox="0 0 95 33" fill="none" xmlns="http://www.w3.org/2000/svg">
<path d="M7.1121 30.031C6.6441 30.031 6.1631 29.966 5.6691 29.836C5.1751 29.706 4.7071 29.459 4.2651 29.095C4.0831 28.939 3.9921 28.77 3.9921 28.588C3.9921 28.302 4.1481 28.159 4.4601 28.159C4.5381 28.159 4.6551 28.185 4.8111 28.237C5.4091 28.497 5.9291 28.627 6.3711 28.627C7.0211 28.627 7.5411 28.406 7.9311 27.964C8.3211 27.522 8.6591 26.95 8.9451 26.248C9.2311 25.546 9.5301 24.818 9.8421 24.064C9.9461 23.83 10.0891 23.479 10.2711 23.011C10.4531 22.517 10.6481 21.945 10.8561 21.295C10.1281 22.335 9.3221 23.219 8.4381 23.947C7.5541 24.649 6.5791 25 5.5131 25C3.7971 25 2.5881 24.519 1.8861 23.557C1.1841 22.569 0.833102 21.334 0.833102 19.852C0.833102 18.682 1.0151 17.421 1.3791 16.069C1.7431 14.691 2.1981 13.352 2.7441 12.052C3.6281 10.024 4.6161 8.256 5.7081 6.748C6.8261 5.214 7.7621 4.122 8.5161 3.472C10.1801 2.094 11.9221 1.405 13.7421 1.405C15.6661 1.405 17.0571 1.847 17.9151 2.731C18.7991 3.589 19.2411 4.551 19.2411 5.617C19.2411 6.163 19.0851 6.748 18.7731 7.372C18.4611 7.996 18.0581 8.581 17.5641 9.127C17.0961 9.673 16.5761 10.128 16.0041 10.492C15.4581 10.83 14.9511 10.999 14.4831 10.999H14.2881C14.0541 10.999 13.9371 10.934 13.9371 10.804C13.9371 10.752 14.0021 10.635 14.1321 10.453C14.4441 10.037 14.8081 9.465 15.2241 8.737C15.6661 8.009 16.0431 7.255 16.3551 6.475C16.6671 5.695 16.8231 5.032 16.8231 4.486C16.8231 4.044 16.7061 3.693 16.4721 3.433C16.2641 3.147 15.9651 3.004 15.5751 3.004C15.0811 3.004 14.4701 3.264 13.7421 3.784C13.0141 4.278 12.2081 5.11 11.3241 6.28C10.7261 7.112 10.1281 8.035 9.5301 9.049C8.9581 10.063 8.4511 11.012 8.0091 11.896C7.5671 12.78 7.2421 13.456 7.0341 13.924C6.5401 15.042 6.1111 16.238 5.7471 17.512C5.3831 18.76 5.2011 19.878 5.2011 20.866C5.2011 21.594 5.3311 22.192 5.5911 22.66C5.8771 23.128 6.3451 23.362 6.9951 23.362C7.6191 23.362 8.2171 23.102 8.7891 22.582C9.3871 22.036 9.9591 21.334 10.5051 20.476C11.0511 19.592 11.5451 18.643 11.9871 17.629L13.2351 14.743C13.5211 14.067 13.8071 13.508 14.0931 13.066C14.4051 12.624 14.8601 12.403 15.4581 12.403H19.7091C19.9171 12.403 20.0211 12.468 20.0211 12.598C20.0211 12.728 19.9041 12.871 19.6701 13.027C19.4101 13.131 18.9291 13.755 18.2271 14.899C17.5251 16.043 16.7581 17.733 15.9261 19.969C15.4061 21.399 14.7821 22.738 14.0541 23.986C13.3521 25.234 12.7801 26.157 12.3381 26.755C11.5581 27.795 10.7261 28.601 9.8421 29.173C8.9581 29.745 8.0481 30.031 7.1121 30.031ZM21.3453 32.761C20.0973 32.787 19.1093 32.618 18.3813 32.254C17.6533 31.89 17.2893 31.318 17.2893 30.538C17.2893 29.836 17.5493 29.225 18.0693 28.705C18.6153 28.211 19.3043 27.769 20.1363 27.379C20.9683 27.015 21.8263 26.703 22.7103 26.443C23.6203 26.183 24.4263 25.962 25.1283 25.78C25.6223 24.454 26.0643 23.18 26.4543 21.958C26.8703 20.736 27.2863 19.488 27.7023 18.214L25.9083 21.412C25.2063 22.452 24.4523 23.349 23.6463 24.103C22.8663 24.857 22.0213 25.169 21.1113 25.039C20.3053 24.909 19.7463 24.584 19.4343 24.064C19.1483 23.518 19.0053 22.907 19.0053 22.231C19.0053 21.425 19.1353 20.593 19.3953 19.735C19.6553 18.851 19.8893 18.097 20.0973 17.473C20.5393 16.199 21.0073 14.964 21.5013 13.768C22.0213 12.572 22.4373 11.675 22.7493 11.077C23.2173 10.167 23.8023 9.556 24.5043 9.244C25.2323 8.932 25.9863 8.776 26.7663 8.776C27.2083 8.776 27.6503 8.815 28.0923 8.893C28.5343 8.945 28.9633 9.01 29.3793 9.088C29.1973 9.14 28.8853 9.465 28.4433 10.063C28.0273 10.661 27.5723 11.402 27.0783 12.286C26.6103 13.144 26.1683 14.028 25.7523 14.938C25.1803 16.212 24.6993 17.421 24.3093 18.565C23.9193 19.709 23.7243 20.541 23.7243 21.061C23.7243 21.399 23.8153 21.568 23.9973 21.568C24.2053 21.568 24.4653 21.386 24.7773 21.022C25.2973 20.346 25.8173 19.527 26.3373 18.565C26.8573 17.603 27.3123 16.745 27.7023 15.991C27.9883 15.393 28.2873 14.73 28.5993 14.002C28.9113 13.248 29.2363 12.52 29.5743 11.818C30.1723 10.674 30.7833 9.842 31.4073 9.322C32.0313 8.802 32.6683 8.49 33.3183 8.386C33.4743 8.36 33.6303 8.347 33.7863 8.347C33.9683 8.321 34.1373 8.308 34.2933 8.308C34.7353 8.308 35.1383 8.347 35.5023 8.425C35.8923 8.477 36.1653 8.529 36.3213 8.581C36.7893 8.737 37.0233 8.919 37.0233 9.127C37.0233 9.231 36.9583 9.322 36.8283 9.4C36.7243 9.452 36.6073 9.478 36.4773 9.478C36.1913 9.478 35.8533 9.738 35.4633 10.258C35.0733 10.752 34.6703 11.389 34.2543 12.169C33.8383 12.923 33.4483 13.716 33.0843 14.548C32.4083 16.056 31.8493 17.603 31.4073 19.189C30.9653 20.775 30.4453 22.387 29.8473 24.025C31.1993 23.193 32.4213 22.075 33.5133 20.671C33.9813 20.099 34.4233 19.462 34.8393 18.76C35.2553 18.032 35.6583 17.304 36.0483 16.576C36.1523 16.368 36.3083 16.264 36.5163 16.264C36.8283 16.264 36.9843 16.433 36.9843 16.771C36.9843 16.823 36.9713 16.875 36.9453 16.927C36.9453 16.979 36.9323 17.031 36.9063 17.083C36.4123 18.123 35.8793 19.085 35.3073 19.969C34.7353 20.827 34.1373 21.594 33.5133 22.27C32.5513 23.31 31.5633 24.155 30.5493 24.805C30.1853 25.065 29.7693 25.299 29.3013 25.507C28.7813 26.781 28.1573 27.964 27.4293 29.056C26.7013 30.148 25.8433 31.032 24.8553 31.708C23.8673 32.384 22.6973 32.735 21.3453 32.761ZM20.1753 31.162C20.9293 31.162 21.7223 30.746 22.5543 29.914C23.3863 29.082 24.0753 28.107 24.6213 26.989C23.8673 27.171 23.0353 27.418 22.1253 27.73C21.2413 28.042 20.4873 28.406 19.8633 28.822C19.2393 29.238 18.9273 29.719 18.9273 30.265C18.9273 30.525 19.0053 30.733 19.1613 30.889C19.3433 31.071 19.6813 31.162 20.1753 31.162ZM51.9393 25.312C50.6393 25.312 49.7553 24.961 49.2873 24.259C48.8193 23.557 48.5853 22.738 48.5853 21.802C48.5853 21.1 48.6633 20.411 48.8193 19.735C48.9753 19.033 49.1443 18.422 49.3263 17.902C49.5083 17.356 49.6253 16.979 49.6773 16.771C49.9633 15.913 50.3013 15.055 50.6913 14.197C51.1073 13.339 51.3803 12.624 51.5103 12.052C51.1983 12.312 50.7823 12.806 50.2623 13.534C49.7423 14.236 49.1703 15.055 48.5463 15.991C47.9483 16.927 47.3763 17.902 46.8303 18.916C46.3103 19.904 45.8683 20.84 45.5043 21.724C45.1663 22.608 44.9972 23.336 44.9972 23.908C44.9972 24.272 45.0753 24.558 45.2313 24.766C44.9973 24.844 44.7633 24.922 44.5293 25C44.2953 25.052 44.0613 25.078 43.8272 25.078C42.9173 25.078 42.2803 24.831 41.9163 24.337C41.5783 23.843 41.4093 23.245 41.4093 22.543C41.4093 21.685 41.5653 20.775 41.8773 19.813C42.2153 18.851 42.5143 18.071 42.7743 17.473C42.9823 17.005 43.2423 16.381 43.5542 15.601C43.8923 14.821 44.2303 14.054 44.5683 13.3C44.9323 12.52 45.2443 11.922 45.5043 11.506C45.2183 11.766 44.7763 12.26 44.1783 12.988C43.6063 13.716 42.9693 14.574 42.2673 15.562C41.5653 16.55 40.8893 17.577 40.2393 18.643C39.5893 19.683 39.0563 20.671 38.6403 21.607C38.2243 22.543 38.0163 23.323 38.0163 23.947C38.0163 24.363 38.1073 24.662 38.2893 24.844C38.3673 24.922 38.4062 24.987 38.4062 25.039C38.4062 25.169 38.2633 25.208 37.9773 25.156C37.3793 25.052 36.7943 24.948 36.2223 24.844C35.6503 24.714 35.1693 24.467 34.7793 24.103C34.4153 23.713 34.2333 23.076 34.2333 22.192C34.2333 21.49 34.4153 20.645 34.7793 19.657C35.1433 18.643 35.5723 17.603 36.0663 16.537C36.5603 15.471 36.9893 14.483 37.3533 13.573C37.4313 13.365 37.5613 13.053 37.7433 12.637C37.9253 12.195 38.1073 11.74 38.2893 11.272C38.4973 10.778 38.6533 10.349 38.7573 9.985C38.8613 9.595 38.8873 9.335 38.8353 9.205C38.7833 9.101 38.7573 9.023 38.7573 8.971C38.7573 8.659 38.9653 8.503 39.3813 8.503C39.7973 8.503 40.2133 8.568 40.6293 8.698C41.0713 8.802 41.4613 8.984 41.7993 9.244C42.1633 9.504 42.4493 9.816 42.6573 10.18C42.8653 10.544 42.9693 10.947 42.9693 11.389C42.9693 11.675 42.9043 12.013 42.7743 12.403C42.6963 12.637 42.5403 12.962 42.3063 13.378C42.0983 13.768 41.8903 14.158 41.6823 14.548C41.5003 14.912 41.3963 15.172 41.3703 15.328C41.7863 14.73 42.2413 14.067 42.7353 13.339C43.2553 12.611 43.7493 11.922 44.2173 11.272C44.7113 10.596 45.1403 10.024 45.5043 9.556C45.8943 9.062 46.1803 8.75 46.3623 8.62C46.6483 8.412 46.9863 8.308 47.3763 8.308C47.9223 8.308 48.5203 8.464 49.1703 8.776C49.6123 8.958 49.9113 9.205 50.0673 9.517C50.2493 9.803 50.3403 10.128 50.3403 10.492C50.3403 11.012 50.1973 11.558 49.9113 12.13C49.6513 12.676 49.4043 13.17 49.1703 13.612C49.6903 12.884 50.2103 12.156 50.7303 11.428C51.2763 10.7 51.7703 10.05 52.2123 9.478C52.6803 8.906 53.0573 8.516 53.3433 8.308C53.5513 8.152 53.8893 8.074 54.3573 8.074C54.9033 8.074 55.4623 8.243 56.0343 8.581C56.6063 8.919 56.8923 9.53 56.8923 10.414C56.8923 10.752 56.8273 11.142 56.6973 11.584C56.5673 12.026 56.3593 12.52 56.0733 13.066C54.9553 15.198 54.0973 17.122 53.4993 18.838C52.9013 20.528 52.6023 21.776 52.6023 22.582C52.6023 23.154 52.7583 23.44 53.0703 23.44C53.4343 23.44 53.8373 23.206 54.2793 22.738C54.7473 22.27 55.2023 21.711 55.6443 21.061C56.2163 20.229 56.7363 19.345 57.2043 18.409C57.6983 17.473 58.0363 16.823 58.2183 16.459C58.2963 16.303 58.4133 16.225 58.5693 16.225C58.7253 16.225 58.8683 16.316 58.9983 16.498C59.1543 16.654 59.1803 16.836 59.0763 17.044C58.8943 17.408 58.6213 17.915 58.2573 18.565C57.9193 19.189 57.5293 19.878 57.0873 20.632C56.6453 21.36 56.1643 22.062 55.6443 22.738C55.0723 23.466 54.4743 24.077 53.8503 24.571C53.2263 25.065 52.5893 25.312 51.9393 25.312ZM65.6822 25.273C64.4082 25.273 63.4592 25.052 62.8352 24.61C62.2372 24.142 61.9382 23.414 61.9382 22.426C61.9382 22.27 61.9382 22.114 61.9382 21.958C61.9642 21.802 61.9902 21.646 62.0162 21.49C62.0942 20.892 62.2762 20.112 62.5622 19.15C62.8482 18.162 63.2252 17.07 63.6932 15.874C63.1732 15.848 62.6402 15.822 62.0942 15.796C61.5482 15.744 61.1062 15.679 60.7682 15.601C60.4302 15.523 60.2742 15.432 60.3002 15.328C60.6902 14.184 61.1062 13.391 61.5482 12.949C61.9902 12.481 62.5362 12.247 63.1862 12.247C63.5762 12.247 63.9792 12.299 64.3952 12.403C64.4992 12.429 64.6032 12.455 64.7072 12.481C64.8112 12.507 64.9282 12.533 65.0582 12.559C65.5002 11.623 65.9552 10.687 66.4232 9.751C66.9172 8.815 67.4372 7.918 67.9832 7.06C68.0872 6.93 68.2692 6.644 68.5292 6.202C68.7892 5.76 69.0362 5.292 69.2702 4.798C69.5302 4.304 69.6602 3.927 69.6602 3.667C69.6602 3.407 69.4912 3.329 69.1532 3.433C68.7112 3.589 68.1912 3.927 67.5932 4.447C66.9952 4.967 66.3452 5.565 65.6432 6.241C64.9412 6.917 64.2002 7.58 63.4202 8.23C62.6662 8.854 61.8862 9.387 61.0802 9.829C60.3002 10.245 59.5332 10.453 58.7792 10.453C58.5972 10.453 58.4022 10.44 58.1942 10.414C58.0122 10.388 57.8172 10.336 57.6092 10.258C57.1672 10.102 56.9462 9.712 56.9462 9.088C56.9462 8.49 57.1152 7.788 57.4532 6.982C57.8172 6.15 58.2592 5.357 58.7792 4.603C58.9092 4.447 59.1432 4.369 59.4812 4.369C59.8192 4.369 59.9492 4.447 59.8712 4.603C59.7412 4.837 59.6762 5.019 59.6762 5.149C59.6762 5.227 59.7022 5.266 59.7542 5.266C59.8322 5.266 59.8842 5.292 59.9102 5.344C60.1182 5.474 60.3522 5.539 60.6122 5.539C61.1582 5.539 61.8602 5.357 62.7182 4.993C63.6022 4.629 64.5512 4.187 65.5652 3.667C66.6052 3.121 67.6322 2.588 68.6462 2.068C69.6862 1.548 70.6482 1.145 71.5322 0.858999C72.4162 0.546999 73.1442 0.442998 73.7162 0.546999C74.1582 0.650999 74.5482 0.962999 74.8862 1.483C75.2502 2.003 75.4842 2.458 75.5882 2.848C75.6662 3.082 75.7052 3.329 75.7052 3.589C75.7052 3.823 75.6532 4.07 75.5492 4.33C75.4712 4.564 75.3282 4.824 75.1202 5.11C74.0542 6.514 73.0532 7.905 72.1172 9.283C71.1812 10.635 70.3362 11.961 69.5822 13.261C69.7382 13.287 69.8812 13.313 70.0112 13.339C70.1412 13.339 70.2322 13.326 70.2842 13.3C70.9602 13.274 71.4022 13.222 71.6102 13.144C71.8442 13.066 71.9742 13.014 72.0002 12.988C71.2722 14.47 70.0112 15.406 68.2172 15.796C67.3852 17.382 66.7352 18.851 66.2672 20.203C65.7992 21.529 65.5652 22.634 65.5652 23.518C65.5652 24.168 65.7082 24.662 65.9942 25C66.0462 25.104 66.0722 25.156 66.0722 25.156C66.0722 25.234 65.9422 25.273 65.6822 25.273ZM75.7332 25.312C74.7972 25.312 73.9522 25.052 73.1982 24.532C72.4442 23.986 72.0672 23.102 72.0672 21.88C72.0672 21.074 72.1972 20.138 72.4572 19.072C72.7432 18.006 73.0942 16.914 73.5102 15.796C73.9262 14.652 74.3552 13.599 74.7972 12.637C75.2652 11.649 75.6812 10.843 76.0452 10.219C76.6172 9.309 77.2542 8.75 77.9562 8.542C78.6842 8.334 79.5682 8.23 80.6082 8.23C81.3622 8.23 81.9862 8.321 82.4802 8.503C82.9742 8.659 83.0522 8.841 82.7142 9.049C82.2202 9.387 81.5832 10.141 80.8032 11.311C80.0232 12.481 79.2692 13.794 78.5412 15.25C78.3332 15.666 78.0732 16.225 77.7612 16.927C77.4492 17.603 77.1372 18.331 76.8252 19.111C76.5392 19.865 76.2922 20.593 76.0842 21.295C75.8762 21.971 75.7722 22.53 75.7722 22.972C75.7722 23.622 76.0712 23.947 76.6692 23.947C77.2932 23.947 77.9952 23.648 78.7752 23.05C79.1392 22.764 79.4772 22.439 79.7892 22.075C80.1012 21.711 80.3872 21.347 80.6472 20.983C81.1672 20.281 81.6352 19.527 82.0512 18.721C82.4932 17.889 82.8962 17.109 83.2602 16.381C83.3382 16.225 83.4422 16.147 83.5722 16.147C83.7542 16.147 83.9102 16.238 84.0402 16.42C84.1702 16.602 84.1832 16.797 84.0792 17.005C83.6892 17.785 83.2082 18.708 82.6362 19.774C82.0642 20.814 81.4012 21.776 80.6472 22.66C79.9972 23.414 79.2562 24.051 78.4242 24.571C77.6182 25.065 76.7212 25.312 75.7332 25.312ZM81.3102 6.28C80.8682 6.28 80.5172 6.137 80.2572 5.851C79.9972 5.539 79.8672 5.136 79.8672 4.642C79.8672 4.044 80.0232 3.498 80.3352 3.004C80.6472 2.51 81.0372 2.107 81.5052 1.795C81.9732 1.483 82.4542 1.327 82.9482 1.327C83.3902 1.327 83.7412 1.483 84.0012 1.795C84.2612 2.081 84.3912 2.445 84.3912 2.887C84.3912 3.459 84.2352 4.005 83.9232 4.525C83.6112 5.045 83.2212 5.474 82.7532 5.812C82.2852 6.124 81.8042 6.28 81.3102 6.28ZM85.6356 25.312C84.6996 25.312 83.8546 25.052 83.1006 24.532C82.3466 23.986 81.9696 23.115 81.9696 21.919C81.9696 20.983 82.1516 19.839 82.5156 18.487C82.8796 17.135 83.3606 15.757 83.9586 14.353C84.5566 12.923 85.2066 11.636 85.9086 10.492H84.2316C84.0756 10.492 83.9976 10.427 83.9976 10.297C83.9976 10.193 84.0626 10.076 84.1926 9.946C84.3226 9.79 84.4786 9.686 84.6606 9.634C85.0766 9.504 85.6096 9.27 86.2596 8.932C86.9356 8.568 87.6376 8.152 88.3656 7.684C89.0936 7.216 89.7826 6.748 90.4326 6.28C91.0826 5.812 91.6026 5.409 91.9926 5.071C92.2266 4.863 92.4736 4.72 92.7336 4.642C93.0196 4.564 93.2926 4.525 93.5526 4.525C93.9946 4.525 94.3326 4.603 94.5666 4.759C94.8006 4.915 94.8006 5.071 94.5666 5.227C94.3586 5.357 94.0726 5.682 93.7086 6.202C93.3446 6.722 92.9676 7.294 92.5776 7.918C92.2136 8.542 91.8886 9.101 91.6026 9.595H94.5666C94.6186 9.595 94.6446 9.634 94.6446 9.712C94.6446 9.842 94.5926 10.011 94.4886 10.219C94.3846 10.401 94.2806 10.492 94.1766 10.492H91.0956C90.5756 11.402 90.0036 12.442 89.3796 13.612C88.7556 14.782 88.1576 15.978 87.5856 17.2C87.0396 18.396 86.5846 19.514 86.2206 20.554C85.8566 21.568 85.6746 22.374 85.6746 22.972C85.6746 23.622 85.9736 23.947 86.5716 23.947C87.1956 23.947 87.8976 23.648 88.6776 23.05C89.3276 22.504 89.9386 21.828 90.5106 21.022C91.0566 20.268 91.5376 19.488 91.9536 18.682C92.3956 17.876 92.7596 17.187 93.0456 16.615C93.1496 16.433 93.2926 16.342 93.4746 16.342C93.6566 16.342 93.7996 16.42 93.9036 16.576C94.0336 16.706 94.0466 16.875 93.9426 17.083C93.5526 17.863 93.0586 18.773 92.4606 19.813C91.8626 20.853 91.2256 21.802 90.5496 22.66C90.0036 23.336 89.4706 23.856 88.9506 24.22C88.4566 24.558 87.9236 24.818 87.3516 25C86.8056 25.208 86.2336 25.312 85.6356 25.312Z" fill="url(#paint0_linear_105_11)"/>
<defs>
<linearGradient id="paint0_linear_105_11" x1="51.2067" y1="-0.5" x2="51.2067" y2="34" gradientUnits="userSpaceOnUse">
<stop stop-color="#F6FF8E"/>
<stop offset="0.5" stop-color="#9AC77C"/>
<stop offset="1" stop-color="#3E8E69"/>
</linearGradient>
</defs>
</svg>
