<svg width="35" height="35" viewBox="0 0 35 35" fill="none" xmlns="http://www.w3.org/2000/svg">
<path d="M29.1667 25.5209C29.7285 25.5212 30.2686 25.7376 30.6752 26.1253C31.0818 26.5129 31.3236 27.0422 31.3506 27.6033C31.3776 28.1644 31.1877 28.7144 30.8202 29.1393C30.4527 29.5642 29.9359 29.8315 29.3767 29.8857L29.1667 29.8959H5.83337C5.2716 29.8956 4.73146 29.6792 4.32489 29.2916C3.91832 28.9039 3.67648 28.3747 3.64948 27.8135C3.62249 27.2524 3.8124 26.7024 4.17988 26.2775C4.54736 25.8526 5.06422 25.5853 5.62337 25.5311L5.83337 25.5209H29.1667ZM29.1667 15.3126C29.7469 15.3126 30.3033 15.543 30.7135 15.9533C31.1237 16.3635 31.3542 16.9199 31.3542 17.5001C31.3542 18.0802 31.1237 18.6366 30.7135 19.0469C30.3033 19.4571 29.7469 19.6876 29.1667 19.6876H5.83337C5.25321 19.6876 4.69681 19.4571 4.28658 19.0469C3.87634 18.6366 3.64587 18.0802 3.64587 17.5001C3.64587 16.9199 3.87634 16.3635 4.28658 15.9533C4.69681 15.543 5.25321 15.3126 5.83337 15.3126H29.1667ZM29.1667 5.10425C29.7469 5.10425 30.3033 5.33472 30.7135 5.74495C31.1237 6.15519 31.3542 6.71159 31.3542 7.29175C31.3542 7.87191 31.1237 8.42831 30.7135 8.83854C30.3033 9.24878 29.7469 9.47925 29.1667 9.47925H5.83337C5.25321 9.47925 4.69681 9.24878 4.28658 8.83854C3.87634 8.42831 3.64587 7.87191 3.64587 7.29175C3.64587 6.71159 3.87634 6.15519 4.28658 5.74495C4.69681 5.33472 5.25321 5.10425 5.83337 5.10425H29.1667Z" fill="white"/>
</svg>
