<svg width="20" height="16" viewBox="0 0 20 16" fill="none" xmlns="http://www.w3.org/2000/svg">
<path d="M0.520833 0.520833V0C0.3827 0 0.250224 0.0548735 0.152549 0.152549C0.0548735 0.250224 0 0.3827 0 0.520833H0.520833ZM19.2708 0.520833H19.7917C19.7917 0.3827 19.7368 0.250224 19.6391 0.152549C19.5414 0.0548735 19.409 0 19.2708 0V0.520833ZM0.520833 1.04167H19.2708V0H0.520833V1.04167ZM18.75 0.520833V13.0208H19.7917V0.520833H18.75ZM17.1875 14.5833H2.60417V15.625H17.1875V14.5833ZM1.04167 13.0208V0.520833H0V13.0208H1.04167ZM2.60417 14.5833C2.18977 14.5833 1.79234 14.4187 1.49931 14.1257C1.20629 13.8327 1.04167 13.4352 1.04167 13.0208H0C0 13.7115 0.274367 14.3739 0.762743 14.8623C1.25112 15.3506 1.9135 15.625 2.60417 15.625V14.5833ZM18.75 13.0208C18.75 13.4352 18.5854 13.8327 18.2924 14.1257C17.9993 14.4187 17.6019 14.5833 17.1875 14.5833V15.625C17.8782 15.625 18.5405 15.3506 19.0289 14.8623C19.5173 14.3739 19.7917 13.7115 19.7917 13.0208H18.75Z" fill="#777777"/>
<path d="M0.520996 0.520844L9.896 9.89584L19.271 0.520844" stroke="#777777" stroke-width="1.04167" stroke-linecap="round" stroke-linejoin="round"/>
</svg>
