<svg width="25" height="25" viewBox="0 0 25 25" fill="none" xmlns="http://www.w3.org/2000/svg">
<path d="M15.0413 6.02068L4.37259 16.6873C4.05538 17.0044 3.84897 17.4154 3.78405 17.8592L3.20801 21.7905L7.1403 21.2144C7.58422 21.1492 7.99523 20.9424 8.31217 20.6248L18.9788 9.95818M15.0413 6.02068L17.3632 3.69776C17.518 3.54296 17.7017 3.42016 17.904 3.33638C18.1062 3.2526 18.323 3.20947 18.5419 3.20947C18.7608 3.20947 18.9775 3.2526 19.1798 3.33638C19.382 3.42016 19.5657 3.54296 19.7205 3.69776L21.3018 5.27901C21.4566 5.43378 21.5794 5.61753 21.6631 5.81976C21.7469 6.022 21.79 6.23876 21.79 6.45766C21.79 6.67656 21.7469 6.89332 21.6631 7.09555C21.5794 7.29779 21.4566 7.48153 21.3018 7.6363L18.9788 9.95818M15.0413 6.02068L18.9788 9.95818" stroke="white" stroke-width="1.5625" stroke-linecap="round" stroke-linejoin="round"/>
</svg>
