<svg width="20" height="20" viewBox="0 0 20 20" fill="none" xmlns="http://www.w3.org/2000/svg">
<path d="M18.3193 13.1145L13.7061 11.0471C13.497 10.9576 13.269 10.9216 13.0425 10.9424C12.8161 10.9632 12.5984 11.0401 12.4092 11.1663C12.39 11.1787 12.3718 11.1924 12.3545 11.2073L9.94337 13.2581C9.91835 13.2717 9.8905 13.2794 9.86203 13.2804C9.83355 13.2814 9.80523 13.2758 9.77931 13.2639C8.2295 12.5159 6.62403 10.9202 5.87306 9.39187C5.86055 9.36633 5.85405 9.33827 5.85405 9.30984C5.85405 9.2814 5.86055 9.25335 5.87306 9.22781L7.93067 6.7864C7.94546 6.76836 7.95916 6.74944 7.97169 6.72976C8.09609 6.53983 8.17124 6.3219 8.19033 6.09565C8.20943 5.8694 8.17187 5.64196 8.08107 5.43386L6.02833 0.828395C5.91176 0.556529 5.71015 0.329803 5.45378 0.182247C5.19741 0.034691 4.90009 -0.025736 4.60646 0.0100351C3.33031 0.177805 2.15891 0.804506 1.31117 1.77302C0.463421 2.74154 -0.00266375 3.9856 1.14525e-05 5.27273C1.14525e-05 12.9192 6.22071 19.1399 13.8672 19.1399C15.1543 19.1424 16.3982 18.6762 17.3667 17.8285C18.3352 16.9808 18.9619 15.8095 19.1299 14.5335C19.1656 14.2412 19.106 13.9452 18.9599 13.6896C18.8139 13.4339 18.5892 13.2322 18.3193 13.1145ZM13.8672 17.968C6.8672 17.968 1.17189 12.2727 1.17189 5.27273C1.16862 4.27071 1.53029 3.30177 2.18931 2.54696C2.84834 1.79214 3.75964 1.30309 4.75294 1.17117H4.7754C4.81476 1.1719 4.85297 1.18451 4.88503 1.20734C4.9171 1.23017 4.94152 1.26215 4.95509 1.2991L7.01564 5.89968C7.02739 5.92526 7.03347 5.95308 7.03347 5.98123C7.03347 6.00938 7.02739 6.03719 7.01564 6.06277L4.95411 8.51004C4.93881 8.52757 4.92477 8.54617 4.91212 8.5657C4.78312 8.76263 4.70716 8.98953 4.69159 9.22444C4.67602 9.45934 4.72137 9.69429 4.82325 9.90652C5.68946 11.68 7.47657 13.4534 9.26954 14.3196C9.48302 14.4209 9.7191 14.4652 9.95478 14.4481C10.1905 14.431 10.4177 14.353 10.6143 14.2219C10.6328 14.2093 10.6514 14.1956 10.669 14.1809L13.0791 12.1302C13.1029 12.1174 13.1292 12.1099 13.1562 12.1082C13.1831 12.1065 13.2102 12.1107 13.2354 12.1204L17.8496 14.1878C17.8873 14.2038 17.919 14.2313 17.9402 14.2664C17.9614 14.3014 17.9711 14.3422 17.9678 14.3831C17.8366 15.3768 17.348 16.2888 16.5933 16.9486C15.8387 17.6083 14.8696 17.9707 13.8672 17.968Z" fill="#777777"/>
</svg>
