<svg width="20" height="20" viewBox="0 0 20 20" fill="none" xmlns="http://www.w3.org/2000/svg">
<path d="M19.8551 18.2637C18.3112 15.5958 15.8874 13.7237 13.0709 12.9298C14.4402 12.2337 15.5352 11.0968 16.1793 9.7023C16.8233 8.30781 16.979 6.73705 16.6211 5.24328C16.2632 3.74951 15.4127 2.41981 14.2067 1.46857C13.0006 0.517328 11.5093 0 9.97329 0C8.43725 0 6.94598 0.517328 5.73993 1.46857C4.53388 2.41981 3.68334 3.74951 3.32547 5.24328C2.9676 6.73705 3.12325 8.30781 3.76732 9.7023C4.4114 11.0968 5.50635 12.2337 6.87564 12.9298C4.05923 13.7227 1.6354 15.5948 0.0914555 18.2637C0.0490607 18.3304 0.0205942 18.405 0.00776855 18.483C-0.00505709 18.561 -0.00197668 18.6407 0.0168242 18.7175C0.035625 18.7942 0.0697578 18.8664 0.117169 18.9296C0.164581 18.9928 0.224291 19.0458 0.292708 19.0854C0.361125 19.1249 0.436835 19.1502 0.515283 19.1597C0.593732 19.1693 0.673296 19.1628 0.749192 19.1408C0.825087 19.1188 0.895745 19.0817 0.956913 19.0316C1.01808 18.9816 1.0685 18.9197 1.10513 18.8497C2.9811 15.6085 6.29556 13.6739 9.97329 13.6739C13.651 13.6739 16.9655 15.6085 18.8415 18.8497C18.8781 18.9197 18.9285 18.9816 18.9897 19.0316C19.0508 19.0817 19.1215 19.1188 19.1974 19.1408C19.2733 19.1628 19.3529 19.1693 19.4313 19.1597C19.5097 19.1502 19.5855 19.1249 19.6539 19.0854C19.7223 19.0458 19.782 18.9928 19.8294 18.9296C19.8768 18.8664 19.911 18.7942 19.9298 18.7175C19.9486 18.6407 19.9516 18.561 19.9388 18.483C19.926 18.405 19.8975 18.3304 19.8551 18.2637ZM4.30923 6.83795C4.30923 5.71771 4.64142 4.62262 5.2638 3.69117C5.88617 2.75972 6.77078 2.03374 7.80575 1.60504C8.84072 1.17634 9.97957 1.06418 11.0783 1.28273C12.177 1.50127 13.1863 2.04072 13.9784 2.83286C14.7705 3.62499 15.31 4.63423 15.5285 5.73295C15.7471 6.83167 15.6349 7.97053 15.2062 9.0055C14.7775 10.0405 14.0515 10.9251 13.1201 11.5475C12.1886 12.1698 11.0935 12.502 9.97329 12.502C8.47164 12.5002 7.03202 11.9029 5.97019 10.8411C4.90837 9.77923 4.31104 8.3396 4.30923 6.83795Z" fill="#777777"/>
</svg>
